<?xml version="1.0" encoding="UTF-8" standalone="no"?>
<svg
   xmlns:dc="http://purl.org/dc/elements/1.1/"
   xmlns:cc="http://creativecommons.org/ns#"
   xmlns:rdf="http://www.w3.org/1999/02/22-rdf-syntax-ns#"
   xmlns:svg="http://www.w3.org/2000/svg"
   xmlns="http://www.w3.org/2000/svg"
   xmlns:sodipodi="http://sodipodi.sourceforge.net/DTD/sodipodi-0.dtd"
   xmlns:inkscape="http://www.inkscape.org/namespaces/inkscape"
   width="135.46666mm"
   height="135.46666mm"
   viewBox="0 0 135.46666 135.46666"
   version="1.1"
   id="svg295"
   inkscape:version="1.0.2 (1.0.2+r75+1)"
   sodipodi:docname="flood-danger.svg">
  <defs
     id="defs289" />
  <sodipodi:namedview
     id="base"
     pagecolor="#ffffff"
     bordercolor="#666666"
     borderopacity="1.0"
     inkscape:pageopacity="0.0"
     inkscape:pageshadow="2"
     inkscape:zoom="0.35"
     inkscape:cx="132.07852"
     inkscape:cy="348.32497"
     inkscape:document-units="mm"
     inkscape:current-layer="layer1"
     inkscape:document-rotation="0"
     showgrid="false"
     inkscape:window-width="1920"
     inkscape:window-height="966"
     inkscape:window-x="0"
     inkscape:window-y="27"
     inkscape:window-maximized="1" />
  <metadata
     id="metadata292">
    <rdf:RDF>
      <cc:Work
         rdf:about="">
        <dc:format>image/svg+xml</dc:format>
        <dc:type
           rdf:resource="http://purl.org/dc/dcmitype/StillImage" />
        <dc:title></dc:title>
      </cc:Work>
    </rdf:RDF>
  </metadata>
  <g
     inkscape:label="Layer 1"
     inkscape:groupmode="layer"
     id="layer1"
     transform="translate(-18.726845,-56.005684)">
    <circle
       style="fill:#b83b5e;fill-opacity:1;stroke-width:0.312256"
       id="path253"
       cx="86.460175"
       cy="123.73901"
       r="67.73333" />
    <g
       id="g97"
       transform="matrix(0.26965371,0,0,0.30008039,35.912812,58.333254)"
       style="fill:#ffffff">
      <g
         id="g290"
         style="fill:#ffffff">
        <path
           d="m 57.625,312.362 c 14.944,0 22.979,-5.771 29.436,-10.408 5.905,-4.241 10.57,-7.592 20.686,-7.592 10.117,0 14.781,3.351 20.687,7.592 6.456,4.637 14.492,10.408 29.436,10.408 14.945,0 22.981,-5.771 29.438,-10.408 5.906,-4.241 10.57,-7.592 20.688,-7.592 10.117,0 14.781,3.351 20.687,7.592 6.457,4.637 14.492,10.408 29.437,10.408 14.947,0 22.983,-5.771 29.44,-10.408 5.906,-4.241 10.572,-7.592 20.69,-7.592 10.119,0 14.784,3.351 20.69,7.592 6.457,4.637 14.494,10.408 29.44,10.408 4.142,0 7.5,-3.357 7.5,-7.5 0,-4.143 -3.358,-7.5 -7.5,-7.5 -10.119,0 -14.784,-3.351 -20.691,-7.592 -6.457,-4.638 -14.493,-10.408 -29.439,-10.408 -0.389,0 -0.772,0.005 -1.149,0.014 -1.048,0.026 -3.042,0.189 -3.042,-2.311 0,0 0,-88.976 0,-119.458 0,-2.416 2.13,-2.492 2.13,-2.492 h 18.545 c 5.165,0 8.031,-2.989 8.991,-5.786 0.961,-2.797 0.535,-6.916 -3.539,-10.089 l -28.909,-22.509 c -1.795,-1.415 -1.88,-2.964 -1.88,-3.703 v -50.78 c 0,-6.341 -5.159,-11.5 -11.5,-11.5 h -34.933 c -6.341,0 -11.5,5.159 -11.5,11.5 0,0 0,4.504 0,6.005 0,2.25 -1.423,0.798 -1.423,0.798 L 175.88,19.095 c -4.427,-3.446 -11.102,-3.446 -15.528,0 L 6.048,139.24 c -4.075,3.173 -4.5,7.292 -3.539,10.089 0.96,2.797 3.827,5.786 8.991,5.786 h 17.979 c 0,0 2.695,-0.175 2.695,2.825 0,32.136 0,126.708 0,126.708 0,1.75 -0.785,1.338 -1.19,1.092 -5.581,-3.397 -12.746,-6.378 -23.484,-6.378 -4.142,0 -7.5,3.357 -7.5,7.5 0,4.143 3.358,7.5 7.5,7.5 10.117,0 14.782,3.351 20.688,7.592 6.456,4.637 14.492,10.408 29.437,10.408 z M 256.462,67.63 c 0,-2.127 1.643,-1.881 1.643,-1.881 h 24.562 c 0,0 1.728,-0.183 1.728,1.881 0,8.355 0,23.202 0,30.936 0,2.417 -1.744,1.038 -1.744,1.038 L 256.935,78.25 c -0.177,-0.229 -0.473,-0.309 -0.473,-1.809 0,-2.673 0,-6.609 0,-8.811 z m -77.905,222.141 c -5.906,4.241 -10.57,7.592 -20.688,7.592 -5.572,0 -9.488,-1.019 -12.87,-2.642 -0.54,-0.259 -1.584,-0.655 -1.584,-2.593 V 258.81 c 0,-2.275 -0.064,-5.979 -0.141,-8.222 -0.003,-0.124 -0.228,-12.515 7.087,-20.017 3.951,-4.051 9.431,-6.02 16.753,-6.02 7.791,0 13.897,2.161 18.149,6.424 7.542,7.561 7.601,19.657 7.601,19.743 -0.027,2.226 -0.05,5.866 -0.05,8.092 v 21.048 c 0,2.25 -1.475,2.462 -2.176,2.753 -4.946,2.049 -8.731,4.754 -12.081,7.16 z M 33.354,140.115 c -3.375,0 -0.901,-2.424 -0.901,-2.424 L 166.207,33.548 c 0,0 0.898,-0.795 2.064,-0.774 1.149,0.02 2.373,1.255 2.373,1.255 l 132.948,103.517 c 0,0 3.513,2.57 -0.987,2.57 -0.512,0 -2.047,0 -2.047,0 -6.341,0 -11.5,5.159 -11.5,11.5 v 130.242 c 0,1.5 -1.221,2.156 -1.805,2.466 -3.248,1.723 -5.965,3.667 -8.444,5.447 -5.906,4.241 -10.572,7.592 -20.69,7.592 -10.117,0 -14.781,-3.351 -20.687,-7.592 -6.106,-4.385 -13.624,-9.785 -27.065,-10.358 -0.771,-0.033 -2.551,0.028 -2.551,-2.639 0,-4.491 0,-17.964 0,-17.964 0,-2.175 0.023,-5.733 0.049,-7.907 0.009,-0.741 0.088,-18.304 -11.857,-30.397 -7.179,-7.269 -16.9,-10.954 -28.893,-10.954 -11.48,0 -20.766,3.586 -27.6,10.659 -11.737,12.147 -11.258,30.103 -11.232,30.86 0.072,2.099 0.133,5.643 0.133,7.739 v 22.818 c 0,2.313 -1.279,1.879 -1.951,1.571 -4.83,-2.214 -10.801,-3.837 -18.719,-3.837 -14.945,0 -22.98,5.772 -29.437,10.408 -5.905,4.241 -10.569,7.592 -20.685,7.592 -4.35,0 -10.451,-1.422 -10.451,-3.714 V 151.615 c 0,-6.341 -5.159,-11.5 -11.5,-11.5 10e-4,0 -1.739,0 -2.319,0 z"
           id="path91"
           style="fill:#ffffff" />
        <path
           d="m 372.209,348.198 c -10.119,0 -14.784,-3.351 -20.691,-7.592 -6.457,-4.638 -14.493,-10.408 -29.439,-10.408 -14.946,0 -22.982,5.771 -29.44,10.408 -5.906,4.241 -10.572,7.592 -20.69,7.592 -10.117,0 -14.781,-3.351 -20.687,-7.592 -6.456,-4.637 -14.492,-10.408 -29.437,-10.408 -14.945,0 -22.981,5.771 -29.438,10.408 -5.906,4.241 -10.57,7.592 -20.688,7.592 -10.117,0 -14.781,-3.351 -20.687,-7.592 -6.456,-4.637 -14.492,-10.408 -29.437,-10.408 -14.945,0 -22.98,5.771 -29.437,10.408 -5.905,4.241 -10.569,7.592 -20.685,7.592 -10.117,0 -14.782,-3.351 -20.688,-7.592 -6.457,-4.637 -14.492,-10.408 -29.438,-10.408 -4.142,0 -7.5,3.357 -7.5,7.5 0,4.143 3.358,7.5 7.5,7.5 10.117,0 14.782,3.351 20.688,7.592 6.456,4.637 14.492,10.408 29.438,10.408 14.944,0 22.979,-5.772 29.436,-10.408 5.905,-4.241 10.57,-7.592 20.686,-7.592 10.117,0 14.781,3.351 20.687,7.592 6.456,4.637 14.492,10.408 29.437,10.408 14.945,0 22.981,-5.772 29.438,-10.408 5.906,-4.241 10.57,-7.592 20.688,-7.592 10.117,0 14.781,3.351 20.687,7.592 6.457,4.637 14.492,10.408 29.437,10.408 14.947,0 22.983,-5.772 29.44,-10.408 5.906,-4.241 10.572,-7.592 20.69,-7.592 10.119,0 14.784,3.351 20.69,7.592 6.458,4.637 14.494,10.408 29.44,10.408 4.142,0 7.5,-3.357 7.5,-7.5 0,-4.143 -3.358,-7.5 -7.5,-7.5 z"
           id="path93"
           style="fill:#ffffff" />
        <path
           d="m 75.533,148.399 91.375,-68.47 c 0.513,-0.384 1.929,-0.387 2.443,-0.005 l 92.187,68.49 c 1.075,0.799 2.33,1.184 3.573,1.184 1.833,0 3.644,-0.837 4.821,-2.422 1.976,-2.66 1.422,-6.418 -1.238,-8.395 l -92.188,-68.49 c -4.793,-3.561 -12.013,-3.546 -16.794,0.034 l -91.376,68.471 c -2.652,1.987 -3.19,5.748 -1.204,8.4 1.988,2.651 5.749,3.188 8.401,1.203 z"
           id="path95"
           style="fill:#ffffff" />
      </g>
    </g>
  </g>
</svg>
